<svg width="446" height="62" viewBox="0 0 446 62" fill="none" xmlns="http://www.w3.org/2000/svg">
<g filter="url(#filter0_d_26_2)">
<path d="M17.84 37.4V53H4.56V6.12H9.84C11.12 6.12 13.0267 6.06667 15.56 5.96C18.0933 5.82667 20.1867 5.76 21.84 5.76C27.6 5.76 31.8933 7.02667 34.72 9.56C37.5733 12.0933 39 15.9733 39 21.2C39 24.2933 38.32 27.04 36.96 29.44C35.6267 31.84 33.8533 33.7467 31.64 35.16C32.84 35.4533 33.8667 36.1333 34.72 37.2C35.6 38.2667 36.28 39.5333 36.76 41C37.24 42.44 37.6533 43.9067 38 45.4C38.3733 46.8667 38.7867 48.32 39.24 49.76C39.72 51.2 40.24 52.28 40.8 53H26.04C25.7467 52.6267 25.52 51.5867 25.36 49.88C25.2 48.1467 24.9733 46.08 24.68 43.68C24.4133 41.2533 24.0267 39.2267 23.52 37.6C23.4667 37.6 23.4 37.6 23.32 37.6C22.8133 37.6 22.2667 37.6 21.68 37.6C21.12 37.5733 20.6267 37.5467 20.2 37.52C19.7733 37.4933 19.32 37.4667 18.84 37.44C18.3867 37.4133 18.0533 37.4 17.84 37.4ZM17.84 29.96H19.12C19.7867 29.96 20.3467 29.9333 20.8 29.88C21.2533 29.8267 21.7467 29.7333 22.28 29.6C22.84 29.44 23.2933 29.2 23.64 28.88C24.0133 28.56 24.36 28.1467 24.68 27.64C25 27.1333 25.24 26.48 25.4 25.68C25.56 24.88 25.64 23.9467 25.64 22.88V19.72C25.64 17.4 25.0267 15.7867 23.8 14.88C22.6 13.9467 20.8667 13.48 18.6 13.48H17.84V29.96ZM59.8719 49.04C61.0452 49.04 61.9385 48.56 62.5519 47.6C63.1919 46.6133 63.5119 45.2667 63.5119 43.56V30.92C63.5119 25.72 62.2852 23.12 59.8319 23.12C58.6852 23.12 57.7919 23.5867 57.1519 24.52C56.5119 25.4533 56.1919 26.7733 56.1919 28.48V41.48C56.1919 46.52 57.4185 49.04 59.8719 49.04ZM59.5519 53.84C53.4452 53.84 48.9785 52.4533 46.1519 49.68C43.3252 46.9067 41.9119 42.48 41.9119 36.4C41.9119 30.3733 43.3385 25.84 46.1919 22.8C49.0452 19.7333 53.6852 18.2 60.1119 18.2C66.3785 18.2 70.8985 19.6667 73.6719 22.6C76.4719 25.5067 77.8719 29.92 77.8719 35.84C77.8719 41.9733 76.3919 46.5067 73.4319 49.44C70.4985 52.3733 65.8719 53.84 59.5519 53.84ZM81.7894 53V7.76L79.3894 6.32V2.6L92.2294 0.6H94.8294V53H81.7894ZM118.119 32.32C118.119 28.9333 117.946 26.5333 117.599 25.12C117.252 23.7067 116.612 23 115.679 23C114.879 23 114.226 23.1467 113.719 23.44C113.212 23.7067 112.839 24.1467 112.599 24.76C112.359 25.3467 112.199 25.96 112.119 26.6C112.066 27.2133 112.039 28 112.039 28.96V32.32H118.119ZM114.919 53.84C111.932 53.84 109.332 53.3867 107.119 52.48C104.932 51.5733 103.199 50.3067 101.919 48.68C100.666 47.0533 99.7457 45.2267 99.1591 43.2C98.5724 41.1467 98.2791 38.8667 98.2791 36.36C98.2791 30.3867 99.7991 25.8667 102.839 22.8C105.879 19.7333 110.132 18.2 115.599 18.2C120.852 18.2 124.612 19.44 126.879 21.92C129.146 24.3733 130.279 28.3333 130.279 33.8V38.24H111.999V39C111.999 40.5733 112.159 41.8667 112.479 42.88C112.826 43.8933 113.319 44.64 113.959 45.12C114.599 45.6 115.252 45.92 115.919 46.08C116.586 46.24 117.399 46.32 118.359 46.32C119.292 46.32 120.292 46.2 121.359 45.96C122.452 45.72 123.546 45.3467 124.639 44.84C125.759 44.3333 126.692 43.7333 127.439 43.04L129.799 47.08C128.812 48.68 127.359 50.0267 125.439 51.12C123.546 52.1867 121.719 52.9067 119.959 53.28C118.199 53.6533 116.519 53.84 114.919 53.84ZM143.972 53.84C140.372 53.84 137.852 52.76 136.412 50.6C134.999 48.44 134.292 44.7867 134.292 39.64V26.04H131.532V20.48L136.252 19L140.332 9.68H147.372V19H153.932V26.04H147.252V40.92C147.252 43.0533 147.559 44.4667 148.172 45.16C148.786 45.8533 149.732 46.2 151.012 46.2C151.572 46.2 152.079 46.1333 152.532 46C152.986 45.8667 153.359 45.68 153.652 45.44V50.88C153.252 51.28 152.732 51.68 152.092 52.08C151.452 52.4533 150.386 52.84 148.892 53.24C147.426 53.64 145.786 53.84 143.972 53.84ZM174.744 49.44L174.344 49.88C174.077 50.2 173.664 50.5733 173.104 51C172.57 51.4267 171.944 51.8533 171.224 52.28C170.53 52.7067 169.677 53.0667 168.664 53.36C167.65 53.68 166.61 53.84 165.544 53.84C158.344 53.84 154.744 50.28 154.744 43.16C154.744 41.7733 154.997 40.5067 155.504 39.36C156.01 38.1867 156.664 37.2 157.464 36.4C158.264 35.6 159.224 34.8933 160.344 34.28C161.464 33.64 162.584 33.1467 163.704 32.8C164.85 32.4267 166.05 32.12 167.304 31.88C168.557 31.64 169.677 31.48 170.664 31.4C171.65 31.32 172.597 31.28 173.504 31.28V30.56C173.504 28.9333 173.064 27.7867 172.184 27.12C171.33 26.4533 169.944 26.12 168.024 26.12C166.37 26.12 164.65 26.32 162.864 26.72C161.077 27.0933 159.677 27.5467 158.664 28.08L156.104 22.64C157.917 21.4667 160.277 20.44 163.184 19.56C166.09 18.6533 169.05 18.2 172.064 18.2C174.73 18.2 176.93 18.4667 178.664 19C180.397 19.5067 181.797 20.3867 182.864 21.64C183.957 22.8667 184.73 24.44 185.184 26.36C185.637 28.2533 185.864 30.6667 185.864 33.6V49.88L186.984 53H176.024L174.744 49.44ZM171.584 46.8C171.93 46.8 172.25 46.7333 172.544 46.6C172.864 46.44 173.104 46.2933 173.264 46.16C173.424 46 173.504 45.92 173.504 45.92V36.32C171.877 36.32 170.584 36.7733 169.624 37.68C168.664 38.56 168.184 39.9333 168.184 41.8C168.184 45.1333 169.317 46.8 171.584 46.8ZM229.394 53L227.834 47.84C227.621 48.2133 227.367 48.5867 227.074 48.96C226.807 49.3333 226.367 49.8133 225.754 50.4C225.141 50.96 224.487 51.4533 223.794 51.88C223.101 52.3067 222.234 52.68 221.194 53C220.154 53.32 219.061 53.48 217.914 53.48C213.514 53.48 210.287 51.9733 208.234 48.96C206.181 45.9467 205.154 41.76 205.154 36.4C205.154 33.04 205.634 30.0533 206.594 27.44C207.554 24.8 209.061 22.68 211.114 21.08C213.167 19.48 215.647 18.68 218.554 18.68C220.287 18.68 221.834 18.8667 223.194 19.24C224.554 19.6133 225.727 20.0667 226.714 20.6V8.48L222.314 7V2.6L236.474 0.6H239.594V53H229.394ZM223.754 45.64C224.234 45.64 224.727 45.56 225.234 45.4C225.741 45.2133 226.234 44.96 226.714 44.64V24.52C225.887 24.3333 225.127 24.24 224.434 24.24C220.887 24.2667 219.101 27 219.074 32.44V38.04C219.074 40.5467 219.514 42.44 220.394 43.72C221.274 45 222.394 45.64 223.754 45.64ZM262.283 49.44L261.883 49.88C261.616 50.2 261.203 50.5733 260.643 51C260.109 51.4267 259.483 51.8533 258.763 52.28C258.069 52.7067 257.216 53.0667 256.203 53.36C255.189 53.68 254.149 53.84 253.083 53.84C245.883 53.84 242.283 50.28 242.283 43.16C242.283 41.7733 242.536 40.5067 243.043 39.36C243.549 38.1867 244.203 37.2 245.003 36.4C245.803 35.6 246.763 34.8933 247.883 34.28C249.003 33.64 250.123 33.1467 251.243 32.8C252.389 32.4267 253.589 32.12 254.843 31.88C256.096 31.64 257.216 31.48 258.203 31.4C259.189 31.32 260.136 31.28 261.043 31.28V30.56C261.043 28.9333 260.603 27.7867 259.723 27.12C258.869 26.4533 257.483 26.12 255.563 26.12C253.909 26.12 252.189 26.32 250.403 26.72C248.616 27.0933 247.216 27.5467 246.203 28.08L243.643 22.64C245.456 21.4667 247.816 20.44 250.723 19.56C253.629 18.6533 256.589 18.2 259.603 18.2C262.269 18.2 264.469 18.4667 266.203 19C267.936 19.5067 269.336 20.3867 270.403 21.64C271.496 22.8667 272.269 24.44 272.723 26.36C273.176 28.2533 273.403 30.6667 273.403 33.6V49.88L274.523 53H263.563L262.283 49.44ZM259.123 46.8C259.469 46.8 259.789 46.7333 260.083 46.6C260.403 46.44 260.643 46.2933 260.803 46.16C260.963 46 261.043 45.92 261.043 45.92V36.32C259.416 36.32 258.123 36.7733 257.163 37.68C256.203 38.56 255.723 39.9333 255.723 41.8C255.723 45.1333 256.856 46.8 259.123 46.8ZM305.093 53.84C302.586 53.84 300.053 53.4267 297.493 52.6C294.933 51.7467 293.293 50.92 292.573 50.12L293.613 43.68C294.52 44.56 296.026 45.32 298.133 45.96C300.266 46.6 302.44 46.92 304.653 46.92C306.253 46.92 307.346 46.72 307.933 46.32C308.546 45.92 308.853 45.36 308.853 44.64C308.853 43.9467 308.32 43.3333 307.253 42.8C306.186 42.24 304.453 41.6 302.053 40.88C295.84 39.0133 292.733 35.1467 292.733 29.28C292.733 26.88 293.426 24.8267 294.813 23.12C296.2 21.3867 297.973 20.1333 300.133 19.36C302.293 18.5867 304.706 18.2 307.373 18.2C311.933 18.2 315.293 19.04 317.453 20.72C317.933 21.1733 318.173 21.4 318.173 21.4L316.413 27.12C314.653 25.3867 312.226 24.52 309.133 24.52C306.6 24.52 305.333 25.2667 305.333 26.76C305.333 27.1867 305.426 27.5467 305.613 27.84C305.8 28.1067 306.106 28.3467 306.533 28.56C306.986 28.7467 307.426 28.9067 307.853 29.04C308.28 29.1467 308.88 29.3067 309.653 29.52C310.426 29.7067 311.093 29.88 311.653 30.04C314.773 31.08 317.04 32.5467 318.453 34.44C319.866 36.3333 320.573 38.6933 320.573 41.52C320.573 49.7333 315.413 53.84 305.093 53.84ZM340.067 49.04C341.241 49.04 342.134 48.56 342.747 47.6C343.387 46.6133 343.707 45.2667 343.707 43.56V30.92C343.707 25.72 342.481 23.12 340.027 23.12C338.881 23.12 337.987 23.5867 337.347 24.52C336.707 25.4533 336.387 26.7733 336.387 28.48V41.48C336.387 46.52 337.614 49.04 340.067 49.04ZM339.747 53.84C333.641 53.84 329.174 52.4533 326.347 49.68C323.521 46.9067 322.107 42.48 322.107 36.4C322.107 30.3733 323.534 25.84 326.387 22.8C329.241 19.7333 333.881 18.2 340.307 18.2C346.574 18.2 351.094 19.6667 353.867 22.6C356.667 25.5067 358.067 29.92 358.067 35.84C358.067 41.9733 356.587 46.5067 353.627 49.44C350.694 52.3733 346.067 53.84 339.747 53.84ZM375.345 53H362.425V27.12L360.025 25.64V21.12L368.625 19H371.865L373.025 28.52C374.118 21.9867 377.625 18.72 383.545 18.72C384.211 18.72 384.905 18.84 385.625 19.08L384.265 33.32C383.705 32.8133 382.478 32.56 380.585 32.56C377.865 32.56 376.118 33.28 375.345 34.72V53ZM398.152 53.84C394.552 53.84 392.032 52.76 390.592 50.6C389.179 48.44 388.472 44.7867 388.472 39.64V26.04H385.712V20.48L390.432 19L394.512 9.68H401.552V19H408.112V26.04H401.432V40.92C401.432 43.0533 401.739 44.4667 402.352 45.16C402.965 45.8533 403.912 46.2 405.192 46.2C405.752 46.2 406.259 46.1333 406.712 46C407.165 45.8667 407.539 45.68 407.832 45.44V50.88C407.432 51.28 406.912 51.68 406.272 52.08C405.632 52.4533 404.565 52.84 403.072 53.24C401.605 53.64 399.965 53.84 398.152 53.84ZM429.603 32.32C429.603 28.9333 429.43 26.5333 429.083 25.12C428.737 23.7067 428.097 23 427.163 23C426.363 23 425.71 23.1467 425.203 23.44C424.697 23.7067 424.323 24.1467 424.083 24.76C423.843 25.3467 423.683 25.96 423.603 26.6C423.55 27.2133 423.523 28 423.523 28.96V32.32H429.603ZM426.403 53.84C423.417 53.84 420.817 53.3867 418.603 52.48C416.417 51.5733 414.683 50.3067 413.403 48.68C412.15 47.0533 411.23 45.2267 410.643 43.2C410.057 41.1467 409.763 38.8667 409.763 36.36C409.763 30.3867 411.283 25.8667 414.323 22.8C417.363 19.7333 421.617 18.2 427.083 18.2C432.337 18.2 436.097 19.44 438.363 21.92C440.63 24.3733 441.763 28.3333 441.763 33.8V38.24H423.483V39C423.483 40.5733 423.643 41.8667 423.963 42.88C424.31 43.8933 424.803 44.64 425.443 45.12C426.083 45.6 426.737 45.92 427.403 46.08C428.07 46.24 428.883 46.32 429.843 46.32C430.777 46.32 431.777 46.2 432.843 45.96C433.937 45.72 435.03 45.3467 436.123 44.84C437.243 44.3333 438.177 43.7333 438.923 43.04L441.283 47.08C440.297 48.68 438.843 50.0267 436.923 51.12C435.03 52.1867 433.203 52.9067 431.443 53.28C429.683 53.6533 428.003 53.84 426.403 53.84Z" fill="white"/>
</g>
<defs>
<filter id="filter0_d_26_2" x="0.559998" y="0.599976" width="445.203" height="61.24" filterUnits="userSpaceOnUse" color-interpolation-filters="sRGB">
<feFlood flood-opacity="0" result="BackgroundImageFix"/>
<feColorMatrix in="SourceAlpha" type="matrix" values="0 0 0 0 0 0 0 0 0 0 0 0 0 0 0 0 0 0 127 0" result="hardAlpha"/>
<feOffset dy="4"/>
<feGaussianBlur stdDeviation="2"/>
<feComposite in2="hardAlpha" operator="out"/>
<feColorMatrix type="matrix" values="0 0 0 0 0 0 0 0 0 0 0 0 0 0 0 0 0 0 0.25 0"/>
<feBlend mode="normal" in2="BackgroundImageFix" result="effect1_dropShadow_26_2"/>
<feBlend mode="normal" in="SourceGraphic" in2="effect1_dropShadow_26_2" result="shape"/>
</filter>
</defs>
</svg>
